<svg version="1.1" xmlns="http://www.w3.org/2000/svg" xmlns:xlink="http://www.w3.org/1999/xlink" width="88.17771" height="99.84079" viewBox="0,0,88.17771,99.84079"><g transform="translate(-192.32102,-130.50077)"><g data-paper-data="{&quot;isPaintingLayer&quot;:true}" fill-rule="evenodd" stroke-miterlimit="10" stroke-dasharray="" stroke-dashoffset="0" style="mix-blend-mode: normal"><g id="tail"><path d="M224.7,201.1c0.8,0.4 2.5,1.3 0.1,4.7c-2.4,3.4 -9.3,4.1 -10.1,4.1c-3.1,0.1 -6.9,0.1 -11.1,-1.3c-12.2,-4 -12.3,-17.1 -8.4,-19.2c3.8,-2.1 5.5,6 11,10.9c2.4,2.2 5.3,3 7.7,3.5c3.4,0.6 9.9,-3.2 10.8,-2.7z" fill="#ffab19" stroke="#001026" stroke-width="1.2" stroke-linecap="round" stroke-linejoin="round"/><path d="M199.9,193c1.6,2.7 4.7,6.5 4.7,6.5c0,0 -3.7,-0.9 -5.8,0.8c-1.7,1.3 -1.3,3.5 -1.1,4.2c-1.3,-1.3 -2.9,-3.1 -3.9,-6.6c-1,-3.5 0,-7.7 2,-8.3c2,-0.4 2.5,1.1 4.1,3.4z" id="detail" fill="#ffffff" stroke="none" stroke-width="1" stroke-linecap="butt" stroke-linejoin="miter"/></g><path d="M229.7,211.5c-1.8,1.2 -8,5.6 -15.9,8.1l-0.4,0.1c-0.4,0.1 -0.6,0.6 -0.4,1c1.7,2.4 4.8,7.2 -0.7,8.9c-5.3,1.7 -15.2,-12.4 -11,-16.1c1.9,-1.4 3.6,-0.7 4.5,-0.3c0.5,0.2 1,0.2 1.5,0.1c1.2,-0.4 3.4,-1.2 5.1,-2.1c4.3,-2.2 5.3,-3.1 7.3,-4.6c2,-1.5 6.6,-5.2 10.3,-2c3.2,2.7 1.4,5.7 -0.3,6.9z" id="leg" fill="#ffab19" stroke="#001026" stroke-width="1.2" stroke-linecap="round" stroke-linejoin="round"/><path d="M245.6,190.7c0.5,0.4 6.6,7.6 8.6,5.8c2.4,-2.1 5.7,-6.2 9.3,-2.9c3.6,3.3 -3.2,8.9 -6.1,10.4c-6.9,3.1 -12.5,-2.8 -13.7,-4.4c-1.2,-1.6 -3.3,-4.3 -3.3,-6.9c0.1,-2.8 3.5,-3.5 5.2,-2z" id="arm" fill="#ffab19" stroke="#001026" stroke-width="1.2" stroke-linecap="round" stroke-linejoin="round"/><g id="body-and-leg"><path d="M245.7,214c2.1,1.9 6.7,5.8 6.7,5.8c0,0 14.3,-2.5 14.3,4.7c0,4.3 -7.2,5.3 -16.9,4.4c-0.6,-0.1 -1.2,-0.3 -1.7,-0.7c-2.2,-1.9 -8.5,-7.5 -12.5,-11.4c-5.9,-5.8 -10.8,-9.6 -10.8,-9.6c-8.5,-8.3 -1.6,-11.8 1.1,-16.6c2.5,-4.1 3.6,-3.3 9.6,-2.1c3.4,0.5 5.4,0.8 7.6,0.7c3.3,-0.1 2.7,4.7 1.8,7.2c0,0 -1.4,3.7 -2.7,5.6c-1.6,2.3 -2.8,3.8 -4,4.7z" id="body" fill="#ffab19" stroke="#001026" stroke-width="1.2" stroke-linecap="round" stroke-linejoin="round"/><path d="M237.3,206.6c0,0 -1.5,-1.2 -3.1,-2.7c-2,-1.8 -4,-3.3 -2,-6.4c1.8,-2.4 3.5,-5.6 8,-2.7c4.3,2.7 2.4,5.2 2.4,5.2c-2.2,4.5 -5.3,6.6 -5.3,6.6z" id="tummy" fill="#ffffff" stroke="none" stroke-width="1" stroke-linecap="butt" stroke-linejoin="miter"/></g><path d="M222.2,198.4c2.2,2.8 5.6,6.3 1.3,9.2c-5.9,3.3 -10.8,-6.7 -11.8,-10.2c-0.9,-3.1 1.7,-5.1 3.9,-6.8c4.3,-3.1 7.9,-5.9 11.9,-4.4c5,1.8 1.4,5.8 -1.1,7.6c-1.5,1.1 -3,2.3 -4.1,3c-0.3,0.5 -0.4,1.1 -0.1,1.6z" id="arm" fill="#ffab19" stroke="#001026" stroke-width="1.2" stroke-linecap="round" stroke-linejoin="round"/><g data-paper-data="{&quot;origPos&quot;:null,&quot;index&quot;:null}" id="head"><path d="M241.39872,139c2.3,-0.4 4.7,-0.6 7.5,-0.4c4.7,0.2 9.2,1.9 9.2,1.9l12.1,-7.9c0.4,-0.2 0.9,0.1 0.8,0.5l-2.1,17.9c-0.6,-0.8 10.6,12.8 3.5,24.2c-7.1,11.4 -22.2,16.5 -41,12.8c-18.8,-3.7 -23.2,-14.5 -22,-20.2c1.2,-5.7 8.3,-7.8 8.3,-7.8c0,0 0.1,-4.5 3.3,-10c1.9,-3.3 8.3,-8 8.3,-8l2.6,-10.7c0.1,-0.4 0.6,-0.5 0.9,-0.3z" fill="#ffab19" stroke="#001026" stroke-width="1.2" stroke-linecap="butt" stroke-linejoin="miter"/><path d="M234.49872,165.3c8.4,0.6 19.9,-8.5 26.6,2.2c6.7,10.6 -4.8,25 -29,20c-18.6,-3.6 -23.4,-13.9 -22.2,-19.6c1.2,-5.7 8.1,-7.5 8.1,-7.5c8.5,-1.9 9.3,4.4 16.5,4.9z" id="face" fill="#ffffff" stroke="none" stroke-width="1" stroke-linecap="butt" stroke-linejoin="miter"/><path d="M239.79872,183.4c-10.5,0.6 -14.3,-6.9 -15.2,-9.6c-0.2,-0.5 0.2,-1 0.7,-0.9c1.5,0.3 4.7,0.6 10.1,0.3c6,-0.4 11.4,-2 13.3,-2.7c0.4,-0.1 0.8,0.2 0.8,0.6c0.3,4.9 -0.6,11.3 -9.7,12.3z" id="mouth" fill="#ffffff" stroke="#001026" stroke-width="1.2" stroke-linecap="round" stroke-linejoin="round"/><path d="M211.49872,165.4c0,0 -7.2,-0.1 -11.9,-3.9" id="whisker" fill="none" stroke="#001026" stroke-width="1.2" stroke-linecap="round" stroke-linejoin="round"/><path d="M211.09872,171.3c0,0 -3.9,1.9 -10.2,1.4" id="whisker" fill="none" stroke="#001026" stroke-width="1.2" stroke-linecap="round" stroke-linejoin="round"/><path d="M239.49872,164c0,1.6 -4.2,4.1 -6,3.9c-1.6,-0.1 -3.1,-2.9 -3,-4.3c0.1,-0.7 2.3,-0.9 4.4,-0.9c2,0 4.7,0.1 4.6,1.3z" id="nose" fill="#001026" stroke="#001026" stroke-width="1.2" stroke-linecap="round" stroke-linejoin="round"/><path d="M267.79872,167.1c3.5,-3.1 12.1,-5.9 12.1,-5.9" id="whisker" fill="none" stroke="#001026" stroke-width="1.2" stroke-linecap="round" stroke-linejoin="round"/><path d="M279.19872,171.2c0,0 -7.4,1.1 -11.7,-0.6" id="whisker" fill="none" stroke="#001026" stroke-width="1.2" stroke-linecap="round" stroke-linejoin="round"/><g id="eye"><path d="M233.49872,146.2c2.8,1.8 2.7,6.9 -0.2,11.4c-3,4.5 -7.6,6.6 -10.4,4.8c-2.8,-1.8 -2.7,-6.9 0.2,-11.4c2.9,-4.5 7.6,-6.7 10.4,-4.8z" id="pupil" fill="#ffffff" stroke="#001026" stroke-width="1.2" stroke-linecap="round" stroke-linejoin="round"/><path d="M223.49872,156.7c0,-1.1 0.8,-2 1.8,-2c1,0 1.8,0.9 1.8,2c0,1.1 -0.8,2 -1.8,2c-1,0 -1.8,-0.9 -1.8,-2" id="pupil" fill="#001026" stroke="none" stroke-width="1" stroke-linecap="butt" stroke-linejoin="miter"/></g><g id="eye"><path d="M258.69872,149.3c3.1,2.2 2.9,7.9 -0.2,12.3c-3,4.4 -7.4,5.8 -10.7,3.9c-2.7,-1.9 -2.9,-7.3 0.1,-11.7c3,-4.4 7.7,-6.8 10.8,-4.5z" fill="#ffffff" stroke="#001026" stroke-width="1.2" stroke-linecap="round" stroke-linejoin="round"/><path d="M248.49872,159.6c0,-1.1 0.8,-1.9 1.8,-2c1,0 1.8,0.9 1.8,2c0,1.1 -0.8,2 -1.8,2c-1,0 -1.8,-0.9 -1.8,-2" id="pupil" fill="#001026" stroke="none" stroke-width="1" stroke-linecap="butt" stroke-linejoin="miter"/></g></g></g></g></svg>